<svg width="800" height="900" viewBox="0 0 24 24" fill="none" xmlns="http://www.w3.org/2000/svg">
    <path d="M12 15.3a3.3 3.3 0 1 0 0-6.6 3.3 3.3 0 0 0 0 6.6z" stroke="black" stroke-width="2" stroke-linecap="round" stroke-linejoin="round"></path>
    <path d="M19.4 13.5a7.7 7.7 0 0 0 .1-3l2-1.6-2-3.4-2.4.6a7.7 7.7 0 0 0-2.6-1.5L13.5 2h-3l-.7 2.6a7.7 7.7 0 0 0-2.6 1.5L4.8 5.5l-2 3.4 2 1.6a7.7 7.7 0 0 0 0 3L2.8 15.1l2 3.4 2.4-.6a7.7 7.7 0 0 0 2.6 1.5L10.5 22h3l.7-2.6a7.7 7.7 0 0 0 2.6-1.5l2.4.6 2-3.4-1.8-1.6z" stroke="black" stroke-width="2" stroke-linecap="round" stroke-linejoin="round"></path>
</svg>
